<svg xmlns="http://www.w3.org/2000/svg" xmlns:xlink="http://www.w3.org/1999/xlink" width="80" zoomAndPan="magnify" viewBox="0 0 60 60" height="80" preserveAspectRatio="xMidYMid meet" version="1.0"><defs><clipPath id="13e359f02a"><path d="M 4 1.867188 L 56 1.867188 L 56 58.117188 L 4 58.117188 Z M 4 1.867188 " clip-rule="nonzero"/></clipPath></defs><g clip-path="url(#13e359f02a)"><path fill="#000000" d="M 49.261719 1.867188 C 52.558594 1.867188 55.214844 4.53125 55.371094 7.667969 L 55.371094 58.117188 L 49.097656 52.789062 L 45.652344 49.652344 L 41.894531 46.378906 L 43.464844 51.546875 L 10.5625 51.546875 C 7.277344 51.546875 4.609375 49.050781 4.609375 45.742188 L 4.609375 7.679688 C 4.609375 4.542969 7.28125 1.875 10.574219 1.875 L 49.246094 1.875 Z M 34.921875 15.1875 L 34.851562 15.1875 L 34.378906 15.65625 C 39.238281 17.0625 41.589844 19.257812 41.589844 19.257812 C 38.457031 17.691406 35.636719 16.910156 32.8125 16.59375 C 30.773438 16.277344 28.734375 16.441406 27.011719 16.59375 L 26.542969 16.59375 C 25.441406 16.59375 23.097656 17.0625 19.957031 18.316406 C 18.863281 18.792969 18.234375 19.101562 18.234375 19.101562 C 18.234375 19.101562 20.585938 16.753906 25.757812 15.5 L 25.441406 15.183594 C 25.441406 15.183594 21.523438 15.035156 17.292969 18.160156 C 17.292969 18.160156 13.0625 25.53125 13.0625 34.613281 C 13.0625 34.613281 15.40625 38.691406 21.835938 38.847656 C 21.835938 38.847656 22.773438 37.597656 23.722656 36.5 C 20.113281 35.402344 18.707031 33.207031 18.707031 33.207031 C 18.707031 33.207031 19.019531 33.363281 19.492188 33.675781 L 19.632812 33.675781 C 19.703125 33.675781 19.734375 33.710938 19.773438 33.746094 L 19.773438 33.761719 C 19.8125 33.796875 19.84375 33.832031 19.914062 33.832031 C 20.6875 34.148438 21.460938 34.464844 22.09375 34.769531 C 23.1875 35.242188 24.589844 35.714844 26.3125 36.023438 C 28.492188 36.339844 30.992188 36.492188 33.835938 36.023438 C 35.242188 35.707031 36.648438 35.398438 38.054688 34.769531 C 38.96875 34.300781 40.09375 33.832031 41.328125 33.042969 C 41.328125 33.042969 39.921875 35.238281 36.160156 36.335938 C 36.933594 37.425781 38.023438 38.679688 38.023438 38.679688 C 44.457031 38.539062 46.953125 34.460938 47.09375 34.632812 C 47.09375 25.5625 42.839844 18.179688 42.839844 18.179688 C 39.007812 15.335938 35.421875 15.226562 34.789062 15.226562 L 34.921875 15.179688 Z M 35.316406 25.53125 C 36.964844 25.53125 38.292969 26.9375 38.292969 28.660156 C 38.292969 30.394531 36.957031 31.800781 35.316406 31.800781 C 33.675781 31.800781 32.339844 30.394531 32.339844 28.671875 C 32.34375 26.9375 33.683594 25.535156 35.316406 25.535156 Z M 24.667969 25.53125 C 26.308594 25.53125 27.636719 26.9375 27.636719 28.660156 C 27.636719 30.394531 26.300781 31.800781 24.660156 31.800781 C 23.019531 31.800781 21.683594 30.394531 21.683594 28.671875 C 21.683594 26.9375 23.019531 25.535156 24.660156 25.535156 Z M 24.667969 25.53125 " fill-opacity="1" fill-rule="nonzero"/></g></svg>