<svg xmlns="http://www.w3.org/2000/svg" xmlns:xlink="http://www.w3.org/1999/xlink" width="80" zoomAndPan="magnify" viewBox="0 0 60 60" height="80" preserveAspectRatio="xMidYMid meet" version="1.0"><path stroke-linecap="butt" transform="matrix(0.0584091, 0, 0, 0.0583447, -18.932566, -5.793197)" fill-opacity="1" fill="#000000" fill-rule="nonzero" stroke-linejoin="miter" d="M 1315.594396 610.598934 C 1315.594396 626.332468 1314.858745 642.066002 1313.320565 657.799536 C 1311.715508 673.466119 1309.441677 689.06575 1306.365317 704.53148 C 1303.288957 719.997209 1299.476946 735.262084 1294.862406 750.326106 C 1290.314743 765.390128 1285.03143 780.253297 1278.945587 794.781709 C 1272.926622 809.377072 1266.238884 823.570728 1258.748616 837.49658 C 1251.325226 851.422431 1243.233062 864.879624 1234.472124 878.002061 C 1225.711186 891.124498 1216.348352 903.778276 1206.383621 915.963396 C 1196.352013 928.148516 1185.785385 939.798027 1174.616861 950.978878 C 1163.515215 962.092779 1151.811672 972.67107 1139.639987 982.6468 C 1127.468302 992.689481 1114.828476 1002.062651 1101.720508 1010.833259 C 1088.61254 1019.536916 1075.103307 1027.638012 1061.19281 1035.069596 C 1047.282313 1042.501181 1033.03743 1049.263253 1018.458159 1055.288861 C 1003.945766 1061.31447 989.098985 1066.603616 973.984696 1071.223249 C 958.937283 1075.775931 943.622361 1079.59215 928.173684 1082.671906 C 912.725008 1085.751661 897.142576 1088.094954 881.42639 1089.634832 C 865.777081 1091.174709 850.060895 1091.911173 834.277831 1091.911173 C 818.494767 1091.911173 802.778581 1091.174709 787.129272 1089.634832 C 771.413086 1088.094954 755.830654 1085.751661 740.381977 1082.671906 C 724.933301 1079.59215 709.618379 1075.775931 694.570966 1071.223249 C 679.456676 1066.603616 664.676773 1061.31447 650.097503 1055.288861 C 635.518232 1049.263253 621.273348 1042.501181 607.362852 1035.069596 C 593.452355 1027.638012 579.943122 1019.536916 566.835154 1010.833259 C 553.727186 1002.062651 541.087359 992.689481 528.915675 982.6468 C 516.74399 972.67107 505.107324 962.092779 493.938801 950.978878 C 482.770277 939.798027 472.203649 928.148516 462.238918 915.963396 C 452.20731 903.778276 442.844476 891.124498 434.083538 878.002061 C 425.3226 864.879624 417.230436 851.422431 409.807046 837.49658 C 402.383656 823.570728 395.629039 809.377072 389.610074 794.781709 C 383.524232 780.253297 378.240918 765.390128 373.693256 750.326106 C 369.078716 735.262084 365.266705 719.997209 362.190345 704.53148 C 359.113985 689.06575 356.840154 673.466119 355.235097 657.799536 C 353.696917 642.066002 352.961265 626.332468 352.961265 610.598934 C 352.961265 594.8654 353.696917 579.131866 355.235097 563.398332 C 356.840154 547.731749 359.113985 532.132117 362.190345 516.666388 C 365.266705 501.26761 369.078716 485.935783 373.693256 470.871762 C 378.240918 455.80774 383.524232 440.944571 389.610074 426.416159 C 395.629039 411.820796 402.383656 397.627139 409.807046 383.701288 C 417.230436 369.775437 425.3226 356.318244 434.083538 343.195807 C 442.844476 330.07337 452.20731 317.419591 462.238918 305.234471 C 472.203649 293.049351 482.770277 281.399841 493.938801 270.218989 C 505.107324 259.105089 516.74399 248.526798 528.915675 238.551068 C 541.087359 228.508386 553.727186 219.135217 566.835154 210.364609 C 579.943122 201.660952 593.452355 193.559855 607.362852 186.128271 C 621.273348 178.696687 635.518232 171.934615 650.097503 165.909006 C 664.676773 159.883398 679.456676 154.594252 694.570966 149.974619 C 709.618379 145.421936 724.933301 141.605718 740.381977 138.525962 C 755.830654 135.446206 771.413086 133.102914 787.129272 131.563036 C 802.778581 130.023159 818.494767 129.286695 834.277831 129.286695 C 850.060895 129.286695 865.777081 130.023159 881.42639 131.563036 C 897.142576 133.102914 912.725008 135.446206 928.173684 138.525962 C 943.622361 141.605718 958.937283 145.421936 973.984696 149.974619 C 989.098985 154.594252 1003.945766 159.883398 1018.458159 165.909006 C 1033.03743 171.934615 1047.282313 178.696687 1061.19281 186.128271 C 1075.103307 193.559855 1088.61254 201.660952 1101.720508 210.364609 C 1114.828476 219.135217 1127.468302 228.508386 1139.639987 238.551068 C 1151.811672 248.526798 1163.515215 259.105089 1174.616861 270.218989 C 1185.785385 281.399841 1196.352013 293.049351 1206.383621 305.234471 C 1216.348352 317.419591 1225.711186 330.07337 1234.472124 343.195807 C 1243.233062 356.318244 1251.325226 369.775437 1258.748616 383.701288 C 1266.238884 397.627139 1272.926622 411.820796 1278.945587 426.416159 C 1285.03143 440.944571 1290.314743 455.80774 1294.862406 470.871762 C 1299.476946 485.935783 1303.288957 501.26761 1306.365317 516.666388 C 1309.441677 532.132117 1311.715508 547.731749 1313.320565 563.398332 C 1314.858745 579.131866 1315.594396 594.8654 1315.594396 610.598934 Z M 1315.594396 610.598934 " stroke="#ffffff" stroke-width="1" stroke-opacity="1" stroke-miterlimit="10"/><path fill="#ffffff" d="M 12.480469 13.5625 L 25.917969 31.507812 L 12.394531 46.101562 L 15.4375 46.101562 L 27.277344 33.324219 L 36.84375 46.101562 L 47.199219 46.101562 L 33.003906 27.144531 L 45.59375 13.5625 L 42.550781 13.5625 L 31.644531 25.328125 L 22.835938 13.5625 Z M 16.953125 15.800781 L 21.710938 15.800781 L 42.722656 43.863281 L 37.964844 43.863281 Z M 16.953125 15.800781 " fill-opacity="1" fill-rule="nonzero"/></svg>