<svg xmlns="http://www.w3.org/2000/svg" xmlns:xlink="http://www.w3.org/1999/xlink" width="80" zoomAndPan="magnify" viewBox="0 0 60 60" height="80" preserveAspectRatio="xMidYMid meet" version="1.0"><defs><clipPath id="3da9f8dc0d"><path d="M 7.859375 13.53125 L 52.109375 13.53125 L 52.109375 46.53125 L 7.859375 46.53125 Z M 7.859375 13.53125 " clip-rule="nonzero"/></clipPath></defs><g clip-path="url(#3da9f8dc0d)"><path fill="#000000" d="M 50.875 19.222656 C 50.46875 16.960938 48.519531 15.3125 46.257812 14.796875 C 42.871094 14.078125 36.605469 13.5625 29.828125 13.5625 C 23.054688 13.5625 16.691406 14.078125 13.300781 14.796875 C 11.042969 15.3125 9.089844 16.855469 8.683594 19.222656 C 8.269531 21.796875 7.859375 25.402344 7.859375 30.03125 C 7.859375 34.664062 8.269531 38.269531 8.78125 40.84375 C 9.195312 43.105469 11.144531 44.753906 13.402344 45.269531 C 16.996094 45.988281 23.15625 46.503906 29.933594 46.503906 C 36.710938 46.503906 42.871094 45.988281 46.464844 45.269531 C 48.722656 44.753906 50.671875 43.210938 51.085938 40.84375 C 51.492188 38.269531 52.007812 34.5625 52.109375 30.03125 C 51.902344 25.402344 51.390625 21.796875 50.875 19.222656 Z M 24.285156 37.238281 L 24.285156 22.828125 L 36.8125 30.03125 Z M 24.285156 37.238281 " fill-opacity="1" fill-rule="nonzero"/></g></svg>